<svg width="27" height="24" viewBox="0 0 27 24" fill="none" xmlns="http://www.w3.org/2000/svg">
<g clip-path="url(#clip0_217_1126)">
<path d="M15.0186 24H3.87133C2.53633 24 1.30145 23.3531 0.600574 22.2534C-0.100302 21.1536 -0.200427 19.7951 0.400324 18.6307L8.54384 2.07008C9.17796 0.77628 10.4796 0 11.9481 0C13.4166 0 14.7182 0.808625 15.3523 2.07008L19.591 10.6739C19.8914 11.3208 19.858 12.0647 19.4575 12.6792C19.057 13.2938 18.3895 13.6496 17.6552 13.6496H13.3498C12.1817 13.6496 11.2138 12.7116 11.2138 11.5795C11.2138 10.4474 12.1817 9.50943 13.3498 9.50943H14.3177L11.9815 4.75472L4.47208 19.8922H15.0186C19.0904 19.8922 22.3945 16.69 22.3945 12.7439V7.98922C22.3945 6.85714 23.3624 5.91914 24.5305 5.91914C25.6986 5.91914 26.6665 6.85714 26.6665 7.98922V12.7439C26.6665 18.9542 21.46 24 15.0186 24Z" fill="#172124"/>
<path d="M24.5305 4.14016C25.7102 4.14016 26.6665 3.21336 26.6665 2.07008C26.6665 0.926807 25.7102 0 24.5305 0C23.3509 0 22.3945 0.926807 22.3945 2.07008C22.3945 3.21336 23.3509 4.14016 24.5305 4.14016Z" fill="#0047AC"/>
</g>
<defs>
<clipPath id="clip0_217_1126">
<rect width="26.6667" height="24" fill="white"/>
</clipPath>
</defs>
</svg>
